<?xml version="1.0" encoding="UTF-8"?>
<svg version="1.1" xmlns="http://www.w3.org/2000/svg" width="3333" height="3333">
<path d="M0 0 C5.99242805 0.01139342 11.98467836 0.00460458 17.97710037 -0.0068779 C47.27172596 -0.05448058 76.45048102 0.49290379 105.69384766 2.26074219 C106.96099609 2.33635376 108.22814453 2.41196533 109.53369141 2.48986816 C116.6763096 2.92751386 123.81059892 3.44146613 130.94384766 4.01074219 C131.99728363 4.0934436 133.0507196 4.17614502 134.13607788 4.26135254 C244.48583902 12.99246565 354.1561629 32.51392865 470.69384766 67.26074219 C471.51036804 67.50848389 472.32688843 67.75622559 473.16815186 68.01147461 C535.70600419 87.03169749 596.95744886 109.72027348 656.69384766 136.26074219 C657.327724 136.5417981 657.96160034 136.822854 658.61468506 137.11242676 C701.21636969 156.01239389 743.43256969 176.36004102 783.83154297 199.63037109 C788.07040625 202.04483109 792.34772739 204.38806951 796.62231445 206.73852539 C818.14551303 218.5864234 839.07356962 231.36039097 859.84863281 244.46826172 C862.52576614 246.15485112 865.2087279 247.8317473 867.89306641 249.50683594 C890.97444437 263.97807699 913.58980699 279.33669429 935.69384766 295.26074219 C937.13915788 296.2972037 938.58447049 297.33366188 940.02978516 298.37011719 C944.59604729 301.65113058 949.14795139 304.951583 953.69384766 308.26074219 C954.47018555 308.8255127 955.24652344 309.3902832 956.04638672 309.97216797 C967.0667888 318.00287233 977.9187094 326.22355437 988.640625 334.6484375 C990.54721429 336.14559751 992.45760063 337.63772603 994.36962891 339.12792969 C1002.62793595 345.5743119 1010.77200168 352.15645252 1018.88525391 358.78417969 C1020.48620245 360.09121759 1022.08982742 361.39497574 1023.69384766 362.69824219 C1030.77295536 368.4603066 1037.74596659 374.3418111 1044.69384766 380.26074219 C1045.28133789 380.76041504 1045.86882813 381.26008789 1046.47412109 381.77490234 C1053.21832385 387.51422254 1059.90765043 393.29834503 1066.46728516 399.24902344 C1068.52489157 401.10808888 1070.60231529 402.94002577 1072.69384766 404.76074219 C1081.49902181 412.43885405 1090.10917071 420.33776955 1098.69384766 428.26074219 C1099.29422852 428.81455566 1099.89460938 429.36836914 1100.51318359 429.93896484 C1107.83726519 436.70532727 1115.07324112 443.52155076 1122.03369141 450.66308594 C1124.07453704 452.65598218 1126.12499405 454.51050437 1128.28759766 456.36230469 C1133.33198895 460.73640006 1138.03120012 465.44791196 1142.73950195 470.17602539 C1144.25377345 471.69565887 1145.77332196 473.20986736 1147.29345703 474.72363281 C1152.06605116 479.49330369 1156.70963927 484.31987898 1161.09985352 489.44848633 C1163.81475001 492.53512696 1166.75586882 495.38834323 1169.69384766 498.26074219 C1173.952446 502.42428253 1177.98933323 506.68550672 1181.88134766 511.19433594 C1185.05235408 514.80955663 1188.38069539 518.27621998 1191.69384766 521.76074219 C1198.90555676 529.34547073 1205.78271599 537.17080428 1212.56884766 545.13574219 C1216.11786098 549.29280907 1219.70058788 553.40649721 1223.38134766 557.44824219 C1227.17892014 561.6344352 1230.76450709 565.96093233 1234.31884766 570.35449219 C1236.86050039 573.46467251 1239.45989425 576.51966433 1242.06884766 579.57324219 C1246.31773114 584.5618338 1250.40819711 589.65403941 1254.43212891 594.82519531 C1257.91495973 599.29401064 1261.47880376 603.69029201 1265.06884766 608.07324219 C1271.80649889 616.32214229 1278.27629077 624.76160077 1284.69384766 633.26074219 C1285.19770996 633.9257373 1285.70157227 634.59073242 1286.22070312 635.27587891 C1293.0887604 644.34314489 1299.81110365 653.50835841 1306.44384766 662.74902344 C1308.4872266 665.59438019 1310.54737488 668.42546681 1312.63134766 671.24121094 C1322.53089251 684.67421204 1331.68076736 698.60830764 1340.88868713 712.51905823 C1343.87375376 717.02822325 1346.87727567 721.52449913 1349.89379883 726.01269531 C1356.35607094 735.64022972 1362.56487535 745.41832322 1368.69384766 755.26074219 C1369.30244629 756.23543457 1369.91104492 757.21012695 1370.53808594 758.21435547 C1380.60973848 774.36700577 1390.27976551 790.71722123 1399.69384766 807.26074219 C1400.80574643 809.20479859 1401.91772339 811.14881027 1403.02978516 813.09277344 C1430.16378203 860.66409185 1454.90320807 909.66102985 1476.67626953 959.91308594 C1477.71513665 962.30985807 1478.75711936 964.70526013 1479.79931641 967.10058594 C1490.43105572 991.57224917 1500.39425767 1016.25263579 1509.69384766 1041.26074219 C1509.98177185 1042.03341431 1510.26969604 1042.80608643 1510.56634521 1043.60217285 C1548.1411385 1144.56135233 1575.51025669 1249.22909062 1609.86181641 1572.47167969 C1609.86504897 1574.82158425 1609.86841432 1577.17148863 1609.87190247 1579.52139282 C1609.87783292 1584.41726139 1609.87974898 1589.31311248 1609.87915039 1594.20898438 C1609.87906963 1599.12796749 1609.88594354 1604.04685649 1609.8996582 1608.96582031 C1609.98417298 1639.79006255 1609.58207801 1670.48981935 1607.69384766 1701.26074219 C1607.61578888 1702.54511169 1607.5377301 1703.8294812 1607.45730591 1705.152771 C1607.00125582 1712.44468683 1606.46689133 1719.72817823 1605.88134766 1727.01074219 C1605.79736725 1728.0754071 1605.71338684 1729.14007202 1605.62686157 1730.23699951 C1597.46782405 1833.21736049 1579.81953602 1935.49491431 1503.69384766 2180.26074219 C1503.42483643 2180.96120667 1503.1558252 2181.66167114 1502.87866211 2182.38336182 C1485.05103714 2228.69187733 1464.50104251 2273.94482809 1442.58642578 2318.44628906 C1441.77763579 2320.09041577 1440.97189309 2321.73604065 1440.16650391 2323.38183594 C1434.69488847 2334.56296313 1428.89648922 2345.53035691 1422.88916016 2356.43261719 C1420.667094 2360.46948537 1418.47803899 2364.52217695 1416.31103516 2368.58886719 C1409.01301553 2382.28215394 1401.45612412 2395.77909083 1393.54736328 2409.12890625 C1391.92657622 2411.86750693 1390.31239865 2414.60987693 1388.70135498 2417.35421753 C1381.06993109 2430.3510382 1373.31492042 2443.25171188 1365.17578125 2455.93847656 C1363.65356566 2458.32386614 1362.15044459 2460.7204321 1360.65087891 2463.12011719 C1346.10685522 2486.31624255 1330.69712385 2509.04672538 1314.69384766 2531.26074219 C1313.65738615 2532.70605241 1312.62092796 2534.15136502 1311.58447266 2535.59667969 C1308.30345926 2540.16294182 1305.00300684 2544.71484592 1301.69384766 2549.26074219 C1301.12907715 2550.03708008 1300.56430664 2550.81341797 1299.98242188 2551.61328125 C1291.95171752 2562.63368333 1283.73103547 2573.48560393 1275.30615234 2584.20751953 C1273.80899234 2586.11410882 1272.31686381 2588.02449516 1270.82666016 2589.93652344 C1264.38027794 2598.19483048 1257.79813733 2606.33889621 1251.17041016 2614.45214844 C1249.86337225 2616.05309699 1248.5596141 2617.65672195 1247.25634766 2619.26074219 C1241.49428325 2626.33984989 1235.61277874 2633.31286112 1229.69384766 2640.26074219 C1229.1941748 2640.84823242 1228.69450195 2641.43572266 1228.1796875 2642.04101562 C1222.44036731 2648.78521838 1216.65624482 2655.47454496 1210.70556641 2662.03417969 C1208.84650096 2664.0917861 1207.01456408 2666.16920982 1205.19384766 2668.26074219 C1197.51573579 2677.06591634 1189.6168203 2685.67606524 1181.69384766 2694.26074219 C1181.14003418 2694.86112305 1180.5862207 2695.46150391 1180.015625 2696.08007812 C1173.24926258 2703.40415972 1166.43303908 2710.64013565 1159.29150391 2717.60058594 C1157.29860766 2719.64143157 1155.44408547 2721.69188859 1153.59228516 2723.85449219 C1149.21818979 2728.89888348 1144.50667788 2733.59809465 1139.77856445 2738.30639648 C1138.25893097 2739.82066799 1136.74472248 2741.34021649 1135.23095703 2742.86035156 C1130.46128615 2747.63294569 1125.63471087 2752.2765338 1120.50610352 2756.66674805 C1117.41946289 2759.38164454 1114.56624661 2762.32276335 1111.69384766 2765.26074219 C1107.53030731 2769.51934053 1103.26908312 2773.55622776 1098.76025391 2777.44824219 C1095.14503322 2780.61924862 1091.67836987 2783.94758992 1088.19384766 2787.26074219 C1080.60911912 2794.47245129 1072.78378556 2801.34961052 1064.81884766 2808.13574219 C1060.66178077 2811.68475552 1056.54809263 2815.26748241 1052.50634766 2818.94824219 C1048.32015465 2822.74581467 1043.99365752 2826.33140163 1039.60009766 2829.88574219 C1036.48991734 2832.42739492 1033.43492551 2835.02678878 1030.38134766 2837.63574219 C1025.39076813 2841.88631882 1020.2970884 2845.97921302 1015.12280273 2850.00341797 C1011.38177278 2852.91782822 1007.69306618 2855.88660823 1004.03027344 2858.89868164 C995.66340429 2865.7752608 987.06640315 2872.30152134 978.37744141 2878.76464844 C974.57274692 2881.59553589 970.81164533 2884.47362849 967.06884766 2887.38574219 C960.59201429 2892.39019198 953.96312212 2897.17237607 947.31103516 2901.94042969 C944.42580409 2904.00883735 941.55509842 2906.09402746 938.70166016 2908.20605469 C925.27365266 2918.10433049 911.34227811 2927.25031232 897.43553162 2936.45558167 C892.9263666 2939.4406483 888.43009072 2942.4441702 883.94189453 2945.46069336 C874.31436013 2951.92296547 864.53626663 2958.13176988 854.69384766 2964.26074219 C853.71915527 2964.86934082 852.74446289 2965.47793945 851.74023438 2966.10498047 C835.58758408 2976.17663301 819.23736861 2985.84666004 802.69384766 2995.26074219 C800.74979126 2996.37264096 798.80577957 2997.48461792 796.86181641 2998.59667969 C749.290498 3025.73067656 700.29356 3050.4701026 650.04150391 3072.24316406 C647.64473177 3073.28203119 645.24932971 3074.32401389 642.85400391 3075.36621094 C618.38234067 3085.99795025 593.70195406 3095.9611522 568.69384766 3105.26074219 C567.92117554 3105.54866638 567.14850342 3105.83659058 566.35241699 3106.13323975 C465.39323751 3143.70803303 360.72549923 3171.07715122 37.48291016 3205.42871094 C35.1330056 3205.4319435 32.78310122 3205.43530885 30.43319702 3205.438797 C25.53732845 3205.44472745 20.64147736 3205.44664351 15.74560547 3205.44604492 C10.82662235 3205.44596416 5.90773335 3205.45283807 0.98876953 3205.46655273 C-29.83547271 3205.55106751 -60.5352295 3205.14897254 -91.30615234 3203.26074219 C-92.59052185 3203.18268341 -93.87489136 3203.10462463 -95.19818115 3203.02420044 C-102.49009699 3202.56815035 -109.77358838 3202.03378586 -117.05615234 3201.44824219 C-118.12081726 3201.36426178 -119.18548218 3201.28028137 -120.28240967 3201.1937561 C-225.3428357 3192.86991697 -329.32201932 3174.41239403 -619.30615234 3079.26074219 C-619.99948669 3078.96339172 -620.69282104 3078.66604126 -621.40716553 3078.35968018 C-640.8684767 3070.00940212 -660.17598853 3061.34744277 -679.30615234 3052.26074219 C-679.93118652 3051.96401611 -680.5562207 3051.66729004 -681.20019531 3051.36157227 C-711.1016738 3037.15063229 -740.79369187 3022.4273421 -769.47607422 3005.875 C-773.70167617 3003.46474464 -777.96747388 3001.12889055 -782.23022461 2998.78515625 C-803.75540928 2986.93754841 -824.6845435 2974.16193306 -845.4609375 2961.05322266 C-848.13807083 2959.36663325 -850.82103259 2957.68973708 -853.50537109 2956.01464844 C-876.58674906 2941.54340739 -899.20211168 2926.18479009 -921.30615234 2910.26074219 C-922.75146257 2909.22428068 -924.19677517 2908.18782249 -925.64208984 2907.15136719 C-930.20835198 2903.87035379 -934.76025608 2900.56990137 -939.30615234 2897.26074219 C-940.08249023 2896.69597168 -940.85882812 2896.13120117 -941.65869141 2895.54931641 C-952.67909349 2887.51861205 -963.53101409 2879.29793 -974.25292969 2870.87304688 C-976.15951897 2869.37588687 -978.06990532 2867.88375835 -979.98193359 2866.39355469 C-988.24024064 2859.94717247 -996.38430637 2853.36503186 -1004.49755859 2846.73730469 C-1006.09850714 2845.43026678 -1007.70213211 2844.12650863 -1009.30615234 2842.82324219 C-1016.38526005 2837.06117778 -1023.35827128 2831.17967327 -1030.30615234 2825.26074219 C-1030.89364258 2824.76106934 -1031.48113281 2824.26139648 -1032.08642578 2823.74658203 C-1038.83062854 2818.00726184 -1045.51995511 2812.22313935 -1052.07958984 2806.27246094 C-1054.13719625 2804.4133955 -1056.21461998 2802.58145861 -1058.30615234 2800.76074219 C-1067.1113265 2793.08263033 -1075.7214754 2785.18371483 -1084.30615234 2777.26074219 C-1084.9065332 2776.70692871 -1085.50691406 2776.15311523 -1086.12548828 2775.58251953 C-1093.44956988 2768.81615711 -1100.6855458 2761.99993361 -1107.64599609 2754.85839844 C-1109.68684172 2752.86550219 -1111.73729874 2751.01098001 -1113.89990234 2749.15917969 C-1118.94429363 2744.78508432 -1123.64350481 2740.07357241 -1128.35180664 2735.34545898 C-1129.86607814 2733.82582551 -1131.38562664 2732.31161701 -1132.90576172 2730.79785156 C-1137.67835585 2726.02818068 -1142.32194396 2721.2016054 -1146.7121582 2716.07299805 C-1149.4270547 2712.98635742 -1152.3681735 2710.13314114 -1155.30615234 2707.26074219 C-1159.56475069 2703.09720184 -1163.60163791 2698.83597765 -1167.49365234 2694.32714844 C-1170.66465877 2690.71192775 -1173.99300008 2687.2452644 -1177.30615234 2683.76074219 C-1184.51786145 2676.17601365 -1191.39502068 2668.3506801 -1198.18115234 2660.38574219 C-1201.73016567 2656.2286753 -1205.31289256 2652.11498716 -1208.99365234 2648.07324219 C-1212.79122483 2643.88704918 -1216.37681178 2639.56055205 -1219.93115234 2635.16699219 C-1222.47280508 2632.05681187 -1225.07219894 2629.00182004 -1227.68115234 2625.94824219 C-1231.93172897 2620.95766266 -1236.02462317 2615.86398293 -1240.04882812 2610.68969727 C-1242.96323838 2606.94866732 -1245.93201839 2603.25996071 -1248.9440918 2599.59716797 C-1255.82067096 2591.23029882 -1262.3469315 2582.63329768 -1268.81005859 2573.94433594 C-1271.64094605 2570.13964145 -1274.51903864 2566.37853986 -1277.43115234 2562.63574219 C-1282.43560213 2556.15890882 -1287.21778623 2549.53001665 -1291.98583984 2542.87792969 C-1294.05424751 2539.99269862 -1296.13943762 2537.12199295 -1298.25146484 2534.26855469 C-1308.14974065 2520.84054719 -1317.29572248 2506.90917264 -1326.50099182 2493.00242615 C-1329.48605845 2488.49326113 -1332.48958035 2483.99698525 -1335.50610352 2479.50878906 C-1341.96837563 2469.88125466 -1348.17718004 2460.10316116 -1354.30615234 2450.26074219 C-1355.21905029 2448.79870361 -1355.21905029 2448.79870361 -1356.15039062 2447.30712891 C-1366.22204316 2431.15447861 -1375.89207019 2414.80426314 -1385.30615234 2398.26074219 C-1386.41805111 2396.31668579 -1387.53002808 2394.3726741 -1388.64208984 2392.42871094 C-1415.77608671 2344.85739253 -1440.51551275 2295.86045453 -1462.28857422 2245.60839844 C-1463.32744134 2243.2116263 -1464.36942405 2240.81622424 -1465.41162109 2238.42089844 C-1476.0433604 2213.9492352 -1486.00656236 2189.26884859 -1495.30615234 2164.26074219 C-1495.73803864 2163.10173401 -1495.73803864 2163.10173401 -1496.1786499 2161.91931152 C-1533.75344319 2060.96013205 -1561.12256138 1956.29239376 -1595.47412109 1633.04980469 C-1595.47735365 1630.69990013 -1595.48071901 1628.34999575 -1595.48420715 1626.00009155 C-1595.49013761 1621.10422299 -1595.49205366 1616.20837189 -1595.49145508 1611.3125 C-1595.49137431 1606.39351688 -1595.49824823 1601.47462788 -1595.51196289 1596.55566406 C-1595.59647767 1565.73142182 -1595.1943827 1535.03166503 -1593.30615234 1504.26074219 C-1593.18906418 1502.33418793 -1593.18906418 1502.33418793 -1593.0696106 1500.36871338 C-1592.61356051 1493.07679754 -1592.07919602 1485.79330615 -1591.49365234 1478.51074219 C-1591.40967194 1477.44607727 -1591.32569153 1476.38141235 -1591.23916626 1475.28448486 C-1582.91532713 1370.22405883 -1564.45780418 1266.24487521 -1459.30615234 953.26074219 C-1459.02509644 952.62686584 -1458.74404053 951.9929895 -1458.45446777 951.33990479 C-1439.55450064 908.73822015 -1419.20685351 866.52202016 -1395.93652344 826.12304688 C-1393.52206344 821.8841836 -1391.17882502 817.60686245 -1388.82836914 813.33227539 C-1376.98047113 791.80907681 -1364.20650356 770.88102023 -1351.09863281 750.10595703 C-1349.41204341 747.4288237 -1347.73514724 744.74586194 -1346.06005859 742.06152344 C-1331.58881755 718.98014547 -1316.23020025 696.36478285 -1300.30615234 674.26074219 C-1299.26969084 672.81543196 -1298.23323265 671.37011936 -1297.19677734 669.92480469 C-1293.91576395 665.35854255 -1290.61531153 660.80663845 -1287.30615234 656.26074219 C-1286.45899658 655.09623535 -1286.45899658 655.09623535 -1285.59472656 653.90820312 C-1277.56402221 642.88780104 -1269.34334016 632.03588044 -1260.91845703 621.31396484 C-1259.42129703 619.40737556 -1257.9291685 617.49698921 -1256.43896484 615.58496094 C-1249.99258263 607.32665389 -1243.41044202 599.18258817 -1236.78271484 591.06933594 C-1235.47567694 589.46838739 -1234.17191879 587.86476243 -1232.86865234 586.26074219 C-1227.10658793 579.18163449 -1221.22508343 572.20862325 -1215.30615234 565.26074219 C-1214.80647949 564.67325195 -1214.30680664 564.08576172 -1213.79199219 563.48046875 C-1208.05267199 556.73626599 -1202.2685495 550.04693942 -1196.31787109 543.48730469 C-1194.45880565 541.42969828 -1192.62686877 539.35227455 -1190.80615234 537.26074219 C-1183.12804048 528.45556803 -1175.22912499 519.84541913 -1167.30615234 511.26074219 C-1166.47543213 510.3601709 -1166.47543213 510.3601709 -1165.62792969 509.44140625 C-1158.86156726 502.11732466 -1152.04534377 494.88134873 -1144.90380859 487.92089844 C-1142.91091235 485.88005281 -1141.05639016 483.82959579 -1139.20458984 481.66699219 C-1134.83049447 476.6226009 -1130.11898257 471.92338972 -1125.39086914 467.21508789 C-1123.87123566 465.70081639 -1122.35702717 464.18126789 -1120.84326172 462.66113281 C-1116.07359084 457.88853868 -1111.24701555 453.24495058 -1106.1184082 448.85473633 C-1103.03176757 446.13983984 -1100.1785513 443.19872103 -1097.30615234 440.26074219 C-1093.142612 436.00214384 -1088.88138781 431.96525662 -1084.37255859 428.07324219 C-1080.7573379 424.90223576 -1077.29067456 421.57389445 -1073.80615234 418.26074219 C-1066.2214238 411.04903308 -1058.39609025 404.17187385 -1050.43115234 397.38574219 C-1046.27408546 393.83672886 -1042.16039732 390.25400197 -1038.11865234 386.57324219 C-1033.93245933 382.7756697 -1029.6059622 379.19008275 -1025.21240234 375.63574219 C-1022.10222202 373.09408945 -1019.0472302 370.49469559 -1015.99365234 367.88574219 C-1011.00307282 363.63516556 -1005.90939308 359.54227136 -1000.73510742 355.51806641 C-996.99407747 352.60365615 -993.30537086 349.63487615 -989.64257812 346.62280273 C-981.27570898 339.74622357 -972.67870784 333.21996303 -963.98974609 326.75683594 C-960.18505161 323.92594848 -956.42395002 321.04785589 -952.68115234 318.13574219 C-946.20431898 313.1312924 -939.57542681 308.3491083 -932.92333984 303.58105469 C-930.03810877 301.51264702 -927.1674031 299.42745691 -924.31396484 297.31542969 C-910.88595735 287.41715388 -896.95458279 278.27117205 -883.0478363 269.06590271 C-878.53867129 266.08083608 -874.04239541 263.07731418 -869.55419922 260.06079102 C-859.92666482 253.5985189 -850.14857131 247.38971449 -840.30615234 241.26074219 C-839.33145996 240.65214355 -838.35676758 240.04354492 -837.35253906 239.41650391 C-821.19988876 229.34485137 -804.8496733 219.67482434 -788.30615234 210.26074219 C-786.36209594 209.14884342 -784.41808426 208.03686645 -782.47412109 206.92480469 C-734.90280268 179.79080782 -685.90586469 155.05138178 -635.65380859 133.27832031 C-633.25703646 132.23945319 -630.8616344 131.19747048 -628.46630859 130.15527344 C-534.76269897 89.44581992 -436.86507258 57.87298743 -116.55615234 4.01074219 C-115.10470322 3.89490784 -115.10470322 3.89490784 -113.62393188 3.7767334 C-106.18920388 3.19194281 -98.75053635 2.70495343 -91.30615234 2.26074219 C-90.24551575 2.19662392 -90.24551575 2.19662392 -89.16345215 2.13121033 C-59.44009214 0.34739962 -29.77228354 -0.05704866 0 0 Z " fill="#0A0A0A" transform="translate(1659.30615234375,63.7392578125)"/>
<path d="M0 0 C353.76 0 707.52 0 1072 0 C1072.020625 111.890625 1072.04125 223.78125 1072.0625 339.0625 C1072.071604 374.42672119 1072.08070801 409.79094238 1072.09008789 446.22680664 C1072.09460449 489.32312012 1072.09460449 489.32312012 1072.09544373 509.48143005 C1072.09643904 524.52755872 1072.10075353 539.5736829 1072.10667343 554.61981031 C1072.11262932 569.96488578 1072.11483596 585.30995841 1072.11344495 600.65503499 C1072.1127279 609.77686857 1072.11471228 618.89869161 1072.1208076 628.02052323 C1072.12456201 634.04857965 1072.12466678 640.07662908 1072.12183534 646.10468597 C1072.12032738 649.53477375 1072.12037081 652.96484132 1072.12488258 656.39492691 C1072.15872545 687.58305329 1072.15872545 687.58305329 1070.09765625 702.5 C1069.92943359 703.7375 1069.76121094 704.975 1069.58789062 706.25 C1069.41451172 707.4875 1069.24113281 708.725 1069.0625 710 C1068.89298828 711.2375 1068.72347656 712.475 1068.54882812 713.75 C1068.20734729 716.24293996 1067.86336707 718.73553888 1067.5168457 721.2277832 C1066.98612421 725.10127297 1066.4853847 728.97803667 1065.984375 732.85546875 C1065.24662745 738.39344081 1064.37564034 743.85411268 1063.1875 749.3125 C1063.01935791 750.09882812 1062.85121582 750.88515625 1062.67797852 751.6953125 C1060.94960271 759.57312533 1058.79052069 767.31733651 1056.55078125 775.0625 C1055.80188328 777.69692123 1055.1227413 780.3484141 1054.4375 783 C1053.31739378 787.11530738 1051.86790264 790.96530015 1050.21875 794.89453125 C1049.22700432 797.42157554 1048.32964762 799.9390486 1047.46875 802.51171875 C1044.03070404 812.77689868 1040.17920304 822.41043874 1035.07568359 831.95751953 C1033.95845667 834.07888141 1032.8923219 836.22075819 1031.83203125 838.37109375 C1019.24415876 863.56834727 1002.50004366 885.81695182 983 906 C982.41814941 906.60908203 981.83629883 907.21816406 981.23681641 907.84570312 C973.58211824 915.84027758 965.661305 923.06423533 956.77978516 929.67333984 C954.98121321 931.01400376 953.19930656 932.37482991 951.41796875 933.73828125 C929.73980604 950.16914831 905.35942781 963.23485754 880 973 C879.06494629 973.3619043 878.12989258 973.72380859 877.16650391 974.09667969 C855.53133333 982.38339155 833.51919449 988.1928865 810.875 992.9375 C810.13976105 993.09333557 809.40452209 993.24917114 808.64700317 993.409729 C806.53472032 993.85425486 804.42033554 994.28665256 802.3046875 994.71484375 C800.4791333 995.08790649 800.4791333 995.08790649 798.61669922 995.46850586 C795 996 795 996 787 996 C787 1004.58 787 1013.16 787 1022 C643.78 1022 500.56 1022 353 1022 C353 804.2 353 586.4 353 362 C236.51 362 120.02 362 0 362 C0 242.54 0 123.08 0 0 Z " fill="#FEFEFE" transform="translate(1449,638)"/>
<path d="M0 0 C142.89 0 285.78 0 433 0 C433.12375 66.268125 433.12375 66.268125 433.25 133.875 C433.28641602 147.68327637 433.32283203 161.49155273 433.36035156 175.71826172 C433.37841797 192.93969727 433.37841797 192.93969727 433.3817749 201.07131958 C433.38541372 206.59849349 433.39977003 212.12549271 433.42230225 217.65261841 C433.54283889 248.27632829 433.17365146 278.78972448 431.35163087 309.36674944 C431.22852399 311.43930622 431.10886021 313.51204045 430.98956347 315.58481956 C430.04207747 331.6215549 428.44669034 347.39489333 425.88830948 363.25698662 C425.08509091 368.2648051 424.51067997 373.262044 424.0625 378.3125 C421.69646418 402.30610266 416.4731577 425.75074814 410.90917969 449.16333008 C409.38814897 455.58196536 407.91351114 462.0112673 406.44091797 468.44116211 C405.96336329 470.52392119 405.48212223 472.60579428 405 474.6875 C404.84789063 475.35587891 404.69578125 476.02425781 404.5390625 476.71289062 C403.25886581 482.21668707 401.67102383 487.603254 400 493 C399.6282666 494.20595825 399.6282666 494.20595825 399.24902344 495.4362793 C392.89509965 515.91026146 386.27968501 536.34315147 377.81738281 556.05444336 C376.90624186 558.22316565 376.04485435 560.408656 375.18359375 562.59765625 C372.58506439 569.11904287 369.74284856 575.53094586 366.875 581.9375 C366.4474794 582.89301254 366.4474794 582.89301254 366.01132202 583.86782837 C361.43306288 594.07036376 356.57580821 604.06879488 351.17529297 613.86425781 C350.00959814 615.98255826 348.86471312 618.11106722 347.72265625 620.2421875 C337.09019616 639.91503374 325.2903139 659.01205211 312 677 C311.51611816 677.66112793 311.03223633 678.32225586 310.53369141 679.00341797 C303.01317891 689.267667 295.13703174 699.21851576 287 709 C286.2579834 709.89283691 286.2579834 709.89283691 285.50097656 710.80371094 C274.64488113 723.806369 263.00888234 736.06092593 251.0625 748.0625 C250.37712158 748.75255127 249.69174316 749.44260254 248.9855957 750.15356445 C245.04553098 754.08120448 240.99636479 757.82300802 236.78393555 761.45678711 C234.60451843 763.34211564 232.49179391 765.29485217 230.375 767.25 C224.7994333 772.27478883 218.93126385 776.86532248 212.99511719 781.45068359 C210.87506541 783.09701847 208.76881825 784.75994294 206.6640625 786.42578125 C197.03104039 794.02777594 187.22518481 801.21683178 177 808 C176.35305176 808.43344727 175.70610352 808.86689453 175.03955078 809.31347656 C163.23591461 817.20593509 151.02933802 824.3695595 138.71630859 831.43408203 C136.43202501 832.75094298 134.16035514 834.08536817 131.89453125 835.43359375 C122.12498752 841.17916953 111.88986647 845.88964527 101.58105469 850.57250977 C100.41606445 851.10287842 99.25107422 851.63324707 98.05078125 852.1796875 C97.00575439 852.65132324 95.96072754 853.12295898 94.8840332 853.60888672 C92.14409442 854.93049606 89.59568352 856.41858453 87 858 C85.16338347 858.7723068 83.30679037 859.49802805 81.4375 860.1875 C74.63625574 862.74184859 67.8943198 865.42953275 61.15600586 868.14526367 C56.12837378 870.16620889 51.08456748 872.12684671 46 874 C45.01 874.36480469 44.02 874.72960938 43 875.10546875 C7.50646259 887.9071743 -28.76316701 898.03563331 -65.78564453 905.35986328 C-69.23396169 906.04659331 -72.67730218 906.75578713 -76.12109375 907.46484375 C-95.24779053 911.3472592 -114.42462456 914.26007707 -133.78173828 916.71679688 C-135.93196813 916.99131444 -138.08128988 917.27207223 -140.23046875 917.5546875 C-165.35168384 920.8399101 -190.54914756 922.45466068 -215.8396759 923.82241821 C-218.24369207 923.9575023 -220.64635616 924.10228523 -223.04936218 924.25350952 C-233.8143969 924.91537083 -244.54014389 925.17780209 -255.32421875 925.203125 C-256.16370371 925.20595238 -257.00318867 925.20877975 -257.86811256 925.21169281 C-262.32866329 925.22654722 -266.78918294 925.2358578 -271.24975586 925.24023438 C-274.83742699 925.24457362 -278.42485146 925.25830706 -282.01245117 925.28125 C-324.34907558 925.54631008 -365.88001504 921.68056462 -407.80859375 915.9609375 C-412.21367676 915.36365784 -416.61897225 914.7976866 -421.03515625 914.2890625 C-436.48920961 912.50408387 -451.73494902 909.86156548 -467.03308105 907.07369995 C-471.02335802 906.34880547 -475.01655414 905.65488084 -479.01953125 905.00390625 C-513.26682243 899.42124675 -546.49987645 890.42401906 -579.5 879.8125 C-580.28736542 879.56028687 -581.07473083 879.30807373 -581.88595581 879.04821777 C-590.22165509 876.36917067 -598.39927864 873.56059328 -606.44775391 870.09204102 C-609.90169905 868.61418597 -613.40506827 867.34129218 -616.9375 866.0625 C-623.12177332 863.78924131 -629.08219917 861.19899447 -635.0390625 858.375 C-638.44136564 856.79503865 -641.88876896 855.39663963 -645.390625 854.0546875 C-654.52647892 850.36205193 -663.25564459 845.8988241 -672 841.375 C-672.6920755 841.01729523 -673.384151 840.65959045 -674.09719849 840.29104614 C-684.60684122 834.84951526 -694.93719621 829.23619573 -705 823 C-705.93956543 822.42362793 -706.87913086 821.84725586 -707.84716797 821.25341797 C-711.02769427 819.30126721 -714.20245186 817.3400876 -717.375 815.375 C-718.36234131 814.76519287 -719.34968262 814.15538574 -720.36694336 813.52709961 C-727.13371922 809.29878834 -733.59084859 804.74917375 -740 800 C-741.7902432 798.70636113 -743.58174564 797.41446153 -745.375 796.125 C-761.87847939 784.09704045 -777.74992803 771.34997456 -792.53515625 757.25390625 C-794.94518083 754.96198289 -797.41155854 752.75841082 -799.9296875 750.5859375 C-804.15266942 746.91693925 -808.1194982 743.02844847 -812.0625 739.0625 C-812.73087891 738.39798828 -813.39925781 737.73347656 -814.08789062 737.04882812 C-818.01395875 733.11512915 -821.75090619 729.07175407 -825.38110352 724.86401367 C-827.67262 722.22553858 -830.05465146 719.68133974 -832.4375 717.125 C-837.21952741 711.93790865 -841.67352832 706.5753501 -846 701 C-847.04891036 699.66882244 -848.09844359 698.33813555 -849.1484375 697.0078125 C-866.29529105 675.21521223 -881.73262929 652.62038667 -895.71240234 628.66381836 C-898.99038602 623.10293714 -902.37775149 618.01426777 -906.62158203 613.1394043 C-908.35517018 610.44875021 -908.48794472 608.15125748 -909 605 C-910.07951922 602.50508379 -911.19532156 600.12121463 -912.4296875 597.70703125 C-913.14518043 596.27022153 -913.86042074 594.833286 -914.57543945 593.39624023 C-915.13891586 592.27413651 -915.13891586 592.27413651 -915.71377563 591.12936401 C-923.17059729 576.25158305 -929.90079919 561.26547653 -935.92895508 545.74829102 C-936.94376688 543.14429365 -937.98367853 540.55189516 -939.03125 537.9609375 C-954.30082003 499.83059644 -965.72803356 459.64841814 -973.5078125 419.31640625 C-974.0627974 416.70445353 -974.74904557 414.14242975 -975.4375 411.5625 C-977.30712356 404.15841865 -978.40863259 396.6640137 -979.53027344 389.12011719 C-979.96950074 386.20258866 -980.42168818 383.28729833 -980.87863159 380.37249756 C-983.52809794 363.46462819 -985.91061323 346.57056086 -987.69042969 329.54418945 C-988.03845455 326.68396304 -988.52631358 323.84211851 -989 321 C-989 316.71 -989 312.42 -989 308 C-845.78 308 -702.56 308 -555 308 C-553.35 315.92 -551.7 323.84 -550 332 C-547.52504416 342.68126404 -547.52504416 342.68126404 -544 353 C-543.7525 354.258125 -543.505 355.51625 -543.25 356.8125 C-536.62493768 387.61145386 -518.77741776 419.00231962 -500 444 C-499.35160156 444.87527344 -498.70320313 445.75054688 -498.03515625 446.65234375 C-486.24158829 461.8088301 -471.91264018 475.28201515 -456 486 C-455.36030273 486.43602539 -454.72060547 486.87205078 -454.06152344 487.32128906 C-444.23726292 493.94810065 -433.92441654 499.12401576 -423.14160156 504.00268555 C-421.09936087 504.95372901 -419.10711326 505.97112471 -417.109375 507.01171875 C-398.09531063 516.59383115 -376.25761937 521.06368141 -355.4375 524.625 C-353.74741821 524.91636841 -353.74741821 524.91636841 -352.02319336 525.21362305 C-348.02260732 525.86631089 -344.01595541 526.45181186 -340 527 C-339.06588287 527.12848328 -338.13176575 527.25696655 -337.16934204 527.38934326 C-320.29820815 529.64518571 -303.66164155 530.47584566 -286.64672852 530.39111328 C-282.80384093 530.37496361 -278.96199775 530.39111408 -275.11914062 530.41015625 C-259.52029741 530.42274581 -244.41547845 529.3538287 -229 527 C-227.3042363 526.75301015 -225.60835868 526.50680092 -223.91235352 526.26147461 C-214.06337425 524.83347513 -204.61636767 522.43989574 -195.08251953 519.61425781 C-191.95905364 518.69296354 -188.82231446 517.81927505 -185.6875 516.9375 C-183.45751914 516.2944836 -181.2283282 515.6487204 -179 515 C-177.35064453 514.52433594 -177.35064453 514.52433594 -175.66796875 514.0390625 C-169.2021648 512.1215643 -163.01117025 509.87622058 -156.81640625 507.2109375 C-154.30993962 506.13326114 -151.79098648 505.11763913 -149.25 504.125 C-136.18454676 498.89050999 -123.68439216 492.9572209 -111.31445312 486.24560547 C-109.20512903 485.1103975 -107.08304016 484.0060658 -104.953125 482.91015625 C-94.9316341 477.65947668 -85.45121574 471.56188869 -76.003479 465.35412598 C-74.51429274 464.37666221 -73.02226517 463.40351208 -71.52728271 462.43493652 C-60.25695054 455.28620364 -60.25695054 455.28620364 -52 445 C-51.35675781 443.99839844 -50.71351563 442.99679687 -50.05078125 441.96484375 C-41.07775074 426.33765578 -33.20667608 409.92379379 -27 393 C-26.58492187 391.88882813 -26.16984375 390.77765625 -25.7421875 389.6328125 C-21.5107753 377.68373026 -18.80128804 365.34543702 -16 353 C-15.74041504 351.87303711 -15.48083008 350.74607422 -15.21337891 349.58496094 C-7.29393951 315.03008528 -3.53306972 280.08661643 -1.93994141 244.71606445 C-1.89661973 243.75782733 -1.85329806 242.7995902 -1.80866361 241.81231558 C-0.76627604 218.16702664 -0.64919533 194.52698366 -0.59480286 170.86231232 C-0.58051585 165.41228696 -0.55597769 159.96232274 -0.5324707 154.5123291 C-0.47006233 138.73742219 -0.42342358 122.96245604 -0.375 107.1875 C-0.25125 71.815625 -0.1275 36.44375 0 0 Z " fill="#FEFEFE" transform="translate(1802,1770)"/>
<path d="M0 0 C20.46 0 40.92 0 62 0 C62.04526791 59.06749195 62.08105304 118.13498138 62.10213066 177.20248699 C62.10462509 184.18520295 62.10721823 191.16791886 62.10986328 198.15063477 C62.1101248 198.84545733 62.11038632 199.54027989 62.11065576 200.25615768 C62.11916134 222.7317636 62.1341711 245.20735939 62.15259444 267.68295919 C62.17204766 291.45843842 62.18400336 315.23391052 62.18817699 339.00939757 C62.19091321 353.23549747 62.19953702 367.46156827 62.21583293 381.68765921 C62.22645257 391.45969535 62.22958942 401.23171658 62.22700275 411.00375807 C62.22572918 416.63104055 62.22760024 422.25827239 62.23841095 427.88554573 C62.31836509 471.71389975 62.31836509 471.71389975 60 492 C59.89029066 492.98605378 59.78058133 493.97210756 59.66754746 494.98804176 C58.23195352 507.73939848 55.84926132 519.75580365 52 532 C51.5978125 533.29744141 51.5978125 533.29744141 51.1875 534.62109375 C50.73981237 536.00739919 50.27447293 537.38816726 49.7890625 538.76171875 C49.16781653 540.52396598 48.58784362 542.30076552 48.0234375 544.08203125 C40.02605076 568.31900942 24.04794617 589.84916318 2 603 C1.34 603 0.68 603 0 603 C0 404.01 0 205.02 0 0 Z " fill="#0B0B0B" transform="translate(2236,824)"/>
</svg>
